<svg width="108" height="194" viewBox="0 0 108 194" fill="none" xmlns="http://www.w3.org/2000/svg">
<g clip-path="url(#clip0_102_820)">
<path d="M53.9204 90.508C47.9085 80.365 42.3531 70.9862 38.7763 61.9702C37.5968 58.3218 36.6645 54.7116 36.0938 51.2733C34.0771 41.3978 34.9142 35.591 38.6812 27.6065C38.7573 27.4346 38.8524 27.2627 38.9285 27.0908C40.7169 26.0593 43.1712 25.1042 46.0059 24.8368C52.3033 24.2064 62.9765 25.811 67.0669 37.3483C71.3666 49.5351 62.1584 73.2974 53.9204 90.508ZM92.77 21.7805C92.3514 20.9974 90.8294 18.113 90.3157 17.1388C90.2206 16.9478 90.1445 16.8332 90.1445 16.8141C83.5047 4.57001 83.2764 6.8813 79.1289 6.15544C78.9767 6.13634 78.8245 6.07904 78.6533 6.04084C73.935 4.95205 65.8112 1.85759 61.8349 0.386769C57.7445 -1.10315 46.9572 2.12501 39.9939 2.81267C38.2246 2.98458 36.8548 3.30932 35.7513 3.74865C32.5551 4.99025 31.756 7.11053 30.4242 8.84877C29.6442 9.86115 29.1115 10.1668 28.3885 10.3387H28.3505C22.9283 12.2871 10.1433 28.1414 12.902 50.0126C13.0922 52.152 13.5488 54.2532 14.1196 56.2971C19.4277 77.3088 37.1211 105.464 41.4779 113.449C38.2817 120.86 31.4326 136.046 29.2447 150.372C29.1496 150.85 28.6359 154.154 28.5978 156.905C28.3124 164.183 29.6632 170.849 33.8678 175.625C33.8868 175.663 34.6859 176.522 34.724 176.56C36.8738 178.681 39.4042 180.037 41.9535 180.858C45.5683 182.425 48.308 181.546 50.9715 181.088C52.1511 181.813 53.3877 182.367 54.6624 182.807C62.2535 185.443 70.7578 183.322 74.7341 181.088C80.0802 179.349 82.5154 176.198 84.0374 171.327C85.5785 166.723 87.9186 157.344 82.6105 143.477C80.2133 137.479 75.3999 128.1 67.9991 114.461L67.942 114.385C73.8779 103.096 89.8021 75.1503 92.6368 66.9939C92.789 66.5546 92.9222 66.1535 93.0554 65.7332C97.8688 53.3554 101.008 37.0045 92.77 21.7805" fill="white"/>
<path d="M49.3977 128.373C47.6854 125.049 43.9184 117.81 43.1194 116.091C34.3868 133.168 32.2369 152.116 32.1038 157.618C32.1989 161.858 32.1038 168.276 38.0777 171.008C45.9922 160.196 32.1228 144.036 49.3977 128.373Z" fill="#ACA9A6"/>
<path d="M69.4315 71.4507C71.4672 61.2695 76.566 52.5974 70.0974 38.4431C64.7704 26.7912 55.6192 22.6271 45.9924 24.8237C52.2898 24.1934 62.982 25.7979 67.0534 37.3353C71.3721 49.5221 62.1639 73.2844 53.926 90.514C53.7357 90.9151 53.5264 91.3163 53.3362 91.7174C57.3505 98.7086 60.6228 104.706 64.542 111.812C64.542 111.812 69.812 103.274 71.9999 99.3962C67.51 88.9477 68.1568 77.7924 69.4315 71.4507Z" fill="#ACA9A6"/>
<path d="M94.4423 38.2515C94.4423 37.9076 94.4423 37.5447 94.4233 37.2009V37.1436C94.4233 36.9908 94.4042 36.857 94.4042 36.7042C94.3472 35.1761 94.252 33.8581 94.0998 32.7693C93.9476 31.6996 93.7574 30.8974 93.5862 30.3243C92.8252 28.0321 90.9987 25.2815 88.9059 22.6455C84.8155 17.4881 79.6977 12.7318 79.5265 12.5981C79.2031 12.7318 78.8796 12.9037 78.5372 13.1138C74.1614 15.7307 74.2755 19.3027 59.0934 12.0059C56.8103 10.898 53.2146 11.6048 51.2169 11.7385C66.5703 23.1803 83.4077 22.7028 94.4423 38.2515" fill="#BCBAB7"/>
<path d="M82.6699 81.3213C83.2597 80.4235 83.7924 79.6021 84.268 78.8572C84.8388 77.9212 85.3715 76.9661 85.8852 76.011C86.1135 75.5717 86.3418 75.1324 86.5701 74.6739C92.7913 62.086 94.5417 47.3969 94.4656 38.2472C86.6652 15.4782 63.892 25.6211 56.6053 11.4286C56.4912 11.4286 51.0309 11.7534 50.9167 11.7725C51.2782 12.2309 51.6397 12.6894 52.0392 13.1287C54.9311 16.4524 61.7041 23.1761 68.9907 24.8762C76.2774 26.5953 82.3845 27.665 88.5297 36.8528C94.6748 46.0598 88.1301 59.0107 82.3845 71.7514C80.0825 76.8324 79.8542 81.9325 79.5307 86.9753C80.463 85.6764 80.6722 84.1674 81.7757 82.6584C82.0421 82.2191 82.3465 81.7797 82.6699 81.3213" fill="#CCC9C6"/>
<path d="M88.4741 36.8627C82.329 27.6557 76.2218 26.6052 68.9352 24.886C61.6485 23.1669 54.8755 16.4431 51.9837 13.1195C51.6032 12.6801 51.2227 12.2217 50.8612 11.7632C45.8385 12.2599 41.8052 16.2903 39.0845 22.0781C38.1523 24.0647 37.3723 26.2613 36.7444 28.5726C38.7611 26.8153 42.1666 25.1726 45.9717 24.8096C55.5985 22.6129 64.7496 26.7771 70.0767 38.429C76.5453 52.5642 71.4465 61.2554 69.4108 71.4174C68.1361 77.7592 67.4893 88.9145 71.9792 99.363C73.5393 96.6124 75.2325 92.7921 79.4371 86.947C79.7796 81.9042 80.0079 76.8041 82.2909 71.7231C88.0746 59.0205 94.6193 46.0697 88.4741 36.8627" fill="#BBB8B5"/>
<path d="M44.8743 114.313C38.0823 123.826 27.6564 174.655 42.8196 172.879C66.6202 169.536 48.0325 120.789 44.8743 114.313Z" fill="#9A9794"/>
<g opacity="0.33">
<path d="M46.7129 20.9772C48.4062 20.4233 50.1946 20.1176 51.9639 19.9266C53.7523 19.7356 55.5407 19.6974 57.329 19.8311C60.9058 20.0794 64.5016 20.9581 67.7168 22.6964C70.9321 24.4346 73.6527 27.0515 75.6313 30.1651C76.6016 31.7314 77.4007 33.3932 78.0665 35.1124C78.6754 36.8506 79.189 38.608 79.5505 40.4035C81.0155 47.6239 80.3496 55.1117 78.8466 62.2366C77.3246 69.3806 74.9845 76.3145 72.2448 83.0191C69.5242 89.7237 66.366 96.2183 63.1508 102.617L58.2613 112.168L53.505 121.7C50.4229 128.08 47.4359 134.498 45.3812 141.183C44.8675 142.845 44.4299 144.545 44.0875 146.245C43.726 147.945 43.4596 149.664 43.3835 151.384C43.1742 154.841 43.5547 158.356 44.9436 161.641L44.525 161.87C42.5084 158.814 41.519 155.089 41.3098 151.403C41.0624 147.697 41.5 143.991 42.242 140.381C42.9459 136.771 44.0494 133.275 45.229 129.837C46.4085 126.399 47.7974 123.037 49.2433 119.713C55.027 106.476 61.857 93.8879 67.888 81.0898C69.372 77.8808 70.856 74.6717 72.1687 71.3862C73.5005 68.1199 74.7181 64.8153 75.7074 61.4343C77.7051 54.7106 78.8276 47.643 77.8002 40.7091C77.5719 38.9709 77.1153 37.29 76.6016 35.609C76.0499 33.9663 75.3459 32.3618 74.5088 30.8336C72.7775 27.8156 70.3043 25.2369 67.2792 23.4604C64.2733 21.6649 60.8107 20.6525 57.291 20.2705C55.5216 20.0794 53.7523 20.0412 51.9829 20.1558C50.2136 20.2705 48.4442 20.4997 46.7129 20.9963V20.9772V20.9772Z" fill="#797775"/>
</g>
<path d="M64.9088 109.357C64.2429 108.249 63.8624 107.638 63.8434 107.638C63.5961 107.218 63.3678 106.817 63.1205 106.415C53.9693 89.8925 44.1142 75.5091 38.7681 61.9852C37.5886 58.3368 36.6563 54.7266 36.0856 51.2883C34.0689 41.4128 34.906 35.6059 38.673 27.6214C42.2878 19.9235 53.2083 10.3345 59.3154 13.2762C72.4999 19.6179 74.2502 16.5616 77.4274 13.9447C77.5226 13.8683 77.7699 13.6773 77.884 13.5818C77.9601 13.5245 78.3597 13.2762 78.4168 13.2189C112.967 39.8846 75.9435 91.4207 64.9088 109.357ZM43.8288 171.857C42.9156 171.991 42.0405 172.029 41.2224 171.934C39.8526 171.743 38.4637 171.208 37.151 170.291C35.3055 169.011 33.9357 167.12 33.2318 164.981C31.0819 158.524 31.5385 145.688 43.0108 116.635C44.2093 119.252 45.3318 121.697 45.8265 122.709C52.4663 136.195 54.0644 148.573 54.0644 155.965C53.3415 165.267 48.8705 170.902 43.8288 171.857ZM92.7808 21.7764C92.3623 20.9932 90.8593 18.128 90.3266 17.1347C90.2314 16.9437 90.1553 16.8291 90.1553 16.81C83.5155 4.56585 83.2872 6.89624 79.1397 6.15128C78.9875 6.13218 78.8353 6.07488 78.6831 6.03667C73.9648 4.94789 65.8411 1.85342 61.8648 0.401701C57.7744 -1.10732 46.987 2.13995 40.0238 2.80851C38.2544 2.98042 36.8846 3.30515 35.7812 3.74449C32.5849 4.98609 31.7859 7.10635 30.4541 8.8446C29.6741 9.85698 29.1414 10.1817 28.4184 10.3345C28.3994 10.3345 28.3803 10.3345 28.3803 10.3536C22.9581 12.302 10.1732 28.1563 12.9318 50.0276C13.1221 52.167 13.5787 54.2681 14.1495 56.312C19.4385 77.3046 37.151 105.46 41.5078 113.445C38.3115 120.856 31.4624 136.042 29.2745 150.368C29.1794 150.846 28.6657 154.15 28.6277 156.901C28.3423 164.179 29.6931 170.845 33.8977 175.62C33.9167 175.639 34.7157 176.518 34.7538 176.556C36.9037 178.677 39.434 180.033 41.9834 180.854C45.5982 182.421 48.3378 181.542 50.9823 181.083C52.1809 181.809 53.4176 182.363 54.6732 182.803C62.2643 185.439 70.7686 183.318 74.7449 181.083C80.091 179.345 82.5072 176.193 84.0482 171.323C85.5893 166.738 87.9294 157.34 82.6213 143.472C80.2242 137.475 75.4108 128.096 68.0099 114.457L67.9529 114.381C73.8887 103.092 89.8129 75.1461 92.6476 66.9898C92.7998 66.5695 92.933 66.1493 93.0662 65.7291C97.8606 53.3513 101 37.0003 92.7808 21.7764" fill="#EFECE8"/>
<path d="M78.4569 87.8523C77.9623 88.6546 76.6876 90.5839 75.0895 92.9334C71.1322 99.638 67.3842 105.33 64.9109 109.361C65.71 110.66 67.4984 113.582 68.2784 114.977C68.1833 114.805 68.0882 114.633 67.993 114.442L67.936 114.365C68.3165 113.639 68.735 112.856 69.1916 111.997C69.2297 107.451 76.9159 91.367 78.4569 87.8523" fill="#DAD7D3"/>
<path d="M61.7891 3.39343C58.8782 1.8271 55.1493 1.94171 51.5916 2.57206C50.5071 2.76308 47.9197 3.25972 47.9197 3.25972C47.9197 3.25972 53.1516 4.55862 57.3372 6.02945C60.0388 7.06093 64.5478 8.81827 69.989 5.93394L70.0841 5.70472C67.5728 5.4373 64.5668 4.88335 61.7891 3.39343" fill="#BBB8B5"/>
<path d="M44.7564 4.63598C43.5578 5.11352 42.5114 5.53375 41.7694 5.93488C31.9524 11.3979 29.1556 16.8228 28.699 17.2621C28.4137 19.1723 27.9951 20.624 27.7858 22.9353C29.6123 23.8713 38.4209 22.1521 44.2617 17.5295C44.9847 16.9183 45.7457 16.3261 46.5447 15.7722C46.8491 15.5239 47.1345 15.3902 47.3818 15.1991C47.4199 15.18 47.4579 15.1036 47.496 15.1036C50.8444 12.1047 54.7827 4.73149 58.4736 6.54614C58.7589 6.69895 59.0634 6.83266 59.3487 6.94726L58.036 6.20231C55.3915 4.78879 52.5948 3.7382 49.5697 3.7382C48.0097 3.77641 46.4116 4.02473 44.7564 4.63598" fill="url(#paint0_linear_102_820)"/>
<path d="M30.2306 10.7543C29.793 11.843 29.4316 12.8936 29.1842 14.2498C29.013 15.1858 28.8418 16.1982 28.6896 17.2679C34.8918 9.55085 41.1321 6.26538 41.779 5.95976C42.5019 5.59683 44.4996 4.24062 45.3747 3.93499C38.6588 5.76874 34.9108 8.51937 30.8965 9.74187C30.7063 9.89468 30.3448 10.4868 30.2306 10.7543" fill="#F6F2EE"/>
<path d="M63.1318 13.4292C52.8581 7.66056 47.5691 14.9956 47.5691 14.9956C47.531 15.0147 47.512 15.1102 47.474 15.1102C43.8211 18.3765 40.1683 22.9418 38.6653 27.5835C42.2801 19.8856 53.2006 10.2966 59.3267 13.2382C73.7859 20.1912 74.5089 15.8551 78.4281 13.2C75.5552 14.9383 73.1961 19.0833 63.1318 13.4292Z" fill="#EBE7E3"/>
<path d="M77.4045 13.7202C70.6695 16.5472 66.1225 11.0077 59.3115 6.9773C59.0261 6.84359 58.7407 6.72898 58.4363 6.57617C53.718 4.20757 45.7465 16.7573 45.7655 16.7382C47.2875 15.6112 52.8429 7.66496 63.1165 13.4336C73.1809 19.0877 74.6648 15.8786 77.4045 13.9494C77.5377 13.8539 78.4128 13.2235 78.4128 13.2235C78.4128 13.2235 77.5567 13.6246 77.4045 13.7202Z" fill="#FFFBF7"/>
<path d="M44.2541 17.5352C38.3943 22.005 29.5856 23.8769 27.7783 22.9409C26.9792 31.785 25.0576 43.2077 27.0172 56.1204C27.8734 61.7553 29.0149 67.7723 29.9471 73.7129C27.5309 54.745 27.0363 31.976 44.2541 17.5352" fill="#EFECE8"/>
<path d="M35.7455 3.74565C32.5492 4.98726 31.7502 7.10753 30.4184 8.84577C29.6384 9.85815 29.1057 10.1829 28.3827 10.3357C28.8773 10.2402 29.4481 10.0874 30.114 9.93456C31.9024 9.47612 33.4244 8.82667 35.1937 8.0244C36.8299 7.29854 38.6754 6.47718 41.0345 5.5221C42.3472 4.98726 45.1249 3.97487 46.5899 3.57374C48.0738 3.17261 51.936 2.50405 52.1452 2.46585C52.1452 2.46585 53.6292 2.27483 54.1048 2.19843C53.9717 2.21753 37.8002 3.15351 35.7455 3.74565" fill="#EFECE8"/>
<path d="M77.0118 177.103C76.8596 177.447 76.7264 177.734 76.5552 178.02C75.9844 179.128 75.3756 180.16 74.7288 181.077C80.0939 179.319 82.5101 176.244 84.0321 171.316C78.3626 177.314 77.0118 177.103 77.0118 177.103" fill="#D2CFCB"/>
<path d="M64.5365 178.742C60.2558 176.851 56.8123 180.557 54.6624 182.791C62.2535 185.427 70.7578 183.307 74.7341 181.072C75.3809 180.155 75.9897 179.124 76.5605 178.016C74.3155 181.779 68.684 180.576 64.5365 178.742Z" fill="#DEDBD7"/>
<path d="M51.3807 172.355C53.5496 168.076 54.6911 160.321 54.0443 155.965C53.3213 165.23 48.8504 170.903 43.8277 171.858C42.9145 172.011 42.0393 172.03 41.2213 171.934C39.8324 171.743 38.4626 171.208 37.1308 170.292C36.9025 170.139 36.6933 169.967 36.503 169.814C32.6599 168.668 29.5778 165.402 28.6836 161.409C28.6836 161.371 28.6646 161.333 28.6456 161.295C28.6836 161.944 28.7407 162.594 28.8168 163.224L28.8358 163.358C29.0641 165.287 29.4637 167.14 30.0725 168.878C34.2961 176.576 46.4532 182.115 51.3807 172.355" fill="#EBE7E3"/>
<path d="M43.8409 171.856C42.9277 172.009 42.0525 172.028 41.2344 171.933C39.8646 171.742 38.4758 171.207 37.163 170.29C36.1547 169.583 35.2795 168.705 34.5756 167.692C31.113 164.082 29.1914 157.664 28.887 153.29L28.868 153.137C28.7348 154.302 28.6207 155.658 28.6016 156.9C28.4875 159.536 28.6016 162.095 29.0012 164.521C29.0202 164.56 29.0202 164.617 29.0392 164.655C32.8823 171.99 43.5365 179.287 50.6139 166.947C48.7684 169.698 46.3712 171.379 43.8409 171.856" fill="#F2EFEA"/>
<path d="M90.1462 16.8098C83.5064 4.56566 83.2781 6.87695 79.1306 6.15109C73.4992 6.45671 67.2208 10.3916 59.3444 6.97246C70.4551 13.6389 79.7965 -0.744577 90.3175 17.0963C90.3175 17.1154 90.4507 17.3446 90.4507 17.3637C90.4126 17.2873 90.3745 17.2109 90.3365 17.1536C90.2223 16.9626 90.1462 16.8289 90.1462 16.8098" fill="#E7E4E0"/>
<path d="M41.9627 180.856C44.7594 179.099 47.1376 176.654 49.0211 173.808C43.7511 178.679 32.3169 177.093 28.9684 164.448C29.6343 168.727 31.1754 172.566 33.8579 175.622C33.877 175.661 34.676 176.52 34.7141 176.558C36.883 178.679 39.4133 180.035 41.9627 180.856Z" fill="#CCC9C6"/>
<path d="M61.8313 0.406486C57.7409 -1.10254 46.9536 2.14473 39.9903 2.83238C38.221 3.0043 36.8511 3.32903 35.7477 3.76836C39.8571 2.87059 40.1425 3.76836 52.2235 2.41215C52.2806 2.39305 53.8026 2.25934 54.2022 2.24024C56.9228 2.06832 59.5863 2.24024 61.7932 3.44363C64.5709 4.93356 67.1774 5.56391 69.6887 5.83133C72.8089 6.17516 75.7768 5.94594 78.6496 6.07965C73.9314 4.95266 65.8076 1.8582 61.8313 0.406486" fill="#F2EFEA"/>
<path d="M69.6794 5.77857L69.356 5.95048C64.8661 8.39548 60.6995 7.24939 58.017 6.2179C58.4545 6.44712 58.8921 6.69544 59.3297 6.96286C67.2252 10.382 73.5035 6.44712 79.116 6.1415C78.9638 6.12239 78.8116 6.06509 78.6594 6.02689C75.7675 5.89318 72.8186 6.12239 69.6794 5.77857" fill="#EBE7E3"/>
<path d="M78.457 144.029C73.3582 121.393 62.2284 106.666 52.4494 94.594C44.1354 84.3555 39.6264 73.3148 37.5336 63.3247C37.7429 65.6169 37.9332 68.0237 38.0854 70.4687C39.9879 84.3555 45.1247 100.84 60.2878 119.483C74.0811 136.426 76.992 138.738 78.457 144.029Z" fill="#FFFBF7"/>
<path d="M90.58 17.6184L90.7322 17.9814C90.7703 18.0769 91.6835 20.2353 91.7215 20.3308C94.2899 26.3669 91.6264 31.3334 91.1317 32.1929C94.8226 45.3157 90.9605 60.3295 84.9485 73.9872C82.3421 79.966 82.4372 85.3335 81.6762 89.0965C81.6762 89.0774 81.6952 89.0583 81.6952 89.0392C86.6798 79.794 91.2269 70.9882 92.6347 66.9769C92.787 66.5375 92.9201 66.1364 93.0533 65.7162C97.8667 53.3575 101.006 37.0065 92.7679 21.7826C92.4064 21.0949 91.2269 18.8409 90.58 17.6184" fill="#EBE7E3"/>
<path d="M78.4163 13.2022C82.0501 16.0101 84.5804 19.3338 86.7493 22.6193C86.0073 17.4045 84.6946 12.2089 80.3568 12.6673C79.8051 12.7247 79.2914 12.8202 78.7777 13.0494C78.7587 13.0494 78.7207 12.973 78.4163 13.2022" fill="#DEDBD7"/>
<path d="M91.8401 20.2304C91.802 20.154 89.2526 16.4292 87.8067 14.9393C86.2086 13.201 83.8875 12.1696 81.8708 12.2269C80.0064 12.2842 79.2644 12.7808 78.6936 13.0673C78.5985 13.1055 78.5034 13.201 78.4463 13.2201C84.6675 11.4246 85.8661 17.4607 86.7793 22.6372C88.777 25.6744 90.2229 28.8834 91.1552 32.2262C91.4786 31.5385 94.1231 26.171 91.8401 20.2304" fill="#CCC9C6"/>
<path d="M54.6645 182.786C57.3661 180.57 59.5921 178.144 62.4459 178.24C60.3911 178.144 52.743 179.806 50.9736 181.067C52.1722 181.792 53.4089 182.365 54.6645 182.786Z" fill="#D2CFCB"/>
<path d="M80.8123 159.394C80.7362 157.273 80.4888 155.191 80.1083 153.166C79.3283 149.136 77.9204 145.392 75.7706 142.317C67.799 131.028 48.6596 110.188 43.713 93.9516C45.1589 104.133 42.7047 116.358 46.7571 122.356C48.1459 124.132 49.4777 125.908 50.7524 127.628C60.4933 139.299 71.8133 146.061 71.4518 162.603C71.2616 171.37 68.3317 174.503 64.032 178.533C64.2032 178.591 64.3744 178.648 64.5457 178.724C68.6932 180.539 74.3246 181.742 76.5696 177.998C79.4615 172.344 81.1167 167.072 80.8123 159.394" fill="#EFECE8"/>
<path d="M72.179 164.018C74.7474 142.739 62.5142 131.336 50.8517 117.926C49.5009 116.417 45.6007 114.698 47.1418 118.232C53.7245 128.623 58.1193 138.69 59.1467 142.892C65.2919 167.629 58.5379 175.46 50.9659 181.076C52.7352 179.815 60.3834 178.154 62.4381 178.249C62.9327 178.268 63.4655 178.364 64.0172 178.555C67.5178 175.269 69.934 173.531 71.3229 168.297C71.5131 167.571 71.6844 166.769 71.8746 165.871C71.9888 165.279 72.1029 164.668 72.179 164.018" fill="#E7E4E0"/>
<path d="M63.1941 148.466C60.3404 137.024 53.6054 119.164 41.6385 103.577C41.4483 104.131 40.4019 107.493 39.5267 109.996C40.3258 111.371 40.9917 112.536 41.4863 113.434C42.0951 114.637 42.4947 115.459 43.0084 116.624C44.2069 119.241 45.3294 121.686 45.8241 122.698C52.4639 136.184 54.062 148.562 54.062 155.954C54.5567 165.218 49.9335 175.858 41.981 180.843C45.5958 182.41 48.3354 181.531 50.999 181.072C57.4485 178.704 69.3393 173.203 63.1941 148.466" fill="#F2EFEA"/>
<path d="M48.1162 11.7712C44.4253 13.5477 41.2481 16.2028 38.5655 19.2017C35.883 22.2007 33.7902 25.6963 32.3443 29.4211C29.4334 36.9089 29.2241 45.1799 30.4798 53.107C31.6784 61.0915 34.5512 68.8085 36.1874 76.9458C37.0245 80.9953 37.4811 85.1785 37.3479 89.3236C37.2148 93.4686 36.4728 97.5755 35.2171 101.491C36.0162 97.4608 36.4347 93.3922 36.2635 89.3236C36.1493 85.274 35.4644 81.2627 34.5132 77.3278C33.5429 73.3929 32.3443 69.4962 31.1647 65.5421C30.0232 61.5881 28.9578 57.5768 28.3109 53.4508C27.6831 49.3249 27.4358 45.1226 27.7782 40.9393C27.9875 38.8572 28.2729 36.7752 28.7866 34.7313C29.2622 32.6874 29.9281 30.6818 30.7842 28.7525C32.4584 24.894 34.8556 21.3793 37.8045 18.4377C40.7725 15.5724 44.2351 13.1083 48.1162 11.7712" fill="#CCC9C6"/>
<path d="M39.7719 109.689C40.59 107.492 41.1227 105.238 41.37 102.927C41.5793 100.615 41.6174 98.304 41.4461 95.9736C41.1988 91.3319 40.4949 86.7285 39.81 82.1059C39.1441 77.4833 38.3641 72.8798 37.7552 68.2572C37.1084 63.6347 36.8801 58.993 36.4425 54.3322L40.6471 81.9722C41.332 86.5947 41.9789 91.2364 42.1501 95.9354C42.2452 98.2849 42.112 100.634 41.8266 102.965C41.3891 105.295 40.7612 107.568 39.7719 109.689" fill="#CCC9C6"/>
<path d="M28.2063 15.1106C27.3121 18.0522 26.494 21.0129 25.9042 24.0119C25.2764 27.0108 24.8008 30.048 24.4964 33.0851C23.8876 39.1594 23.8876 45.3101 24.5154 51.3844C25.1052 57.4587 26.513 63.4375 28.0351 69.3781C28.777 72.358 29.5951 75.3187 30.261 78.3367C30.8888 81.3357 31.4977 84.411 31.4025 87.4864C31.2694 84.411 30.5654 81.4121 29.7664 78.4514C28.9673 75.4906 28.0921 72.549 27.255 69.5882C25.5428 63.6858 24.1539 57.6306 23.469 51.4799C23.1456 48.4046 23.0124 45.3101 23.0504 42.2157C23.0885 39.1212 23.2597 36.0268 23.6592 32.9705C24.0588 29.8952 24.6295 26.8771 25.3715 23.8782C26.1516 20.9174 27.0648 17.9758 28.2063 15.1106" fill="#CCC9C6"/>
<path d="M22.4647 17.6596C21.1139 20.2192 20.2007 22.9699 19.4587 25.7396C18.7167 28.5284 18.203 31.3554 17.8035 34.2016C17.0425 39.8938 16.9473 45.6816 17.5371 51.393C18.1269 57.0853 19.4777 62.7202 21.7607 67.954C22.9213 70.5519 24.234 73.1497 25.5277 75.6902C26.8024 78.2689 28.2674 80.733 29.6182 83.2926C28.7049 82.1656 27.8298 81.0195 26.9927 79.8352C26.1746 78.6509 25.3755 77.4284 24.6335 76.1677C23.9106 74.907 23.2066 73.6272 22.5598 72.3474C21.8939 71.0676 21.2661 69.7496 20.6953 68.3934C18.4123 63.0067 17.0805 57.2572 16.5288 51.4694C15.958 45.6625 16.2624 39.8174 17.1566 34.087C17.6132 31.2217 18.2601 28.3756 19.0972 25.6059C19.9533 22.8743 20.9617 20.1237 22.4647 17.6596" fill="#DEDBD7"/>
<path d="M28.6823 17.2667C31.3078 13.2554 34.9606 9.96993 38.8989 7.2384C40.8965 5.88219 43.0464 4.7361 45.3484 3.93383C46.1855 3.64731 47.0227 3.41809 47.8978 3.26528C48.2403 3.20797 48.6018 3.16977 48.9442 3.15067C49.572 3.11246 50.1999 3.11246 50.8467 3.20797C51.4936 3.28438 52.1024 3.4945 52.6732 3.68551C57.2773 5.32825 61.2536 8.09797 65.2869 10.5812C67.3036 11.8228 69.3583 13.0262 71.6033 13.7329C72.7067 14.0959 73.8863 14.306 75.0469 14.2296C76.2074 14.1532 77.3679 13.8093 78.3953 13.1981C77.425 13.9048 76.2835 14.3633 75.0659 14.5161C73.8483 14.6689 72.6306 14.5161 71.4511 14.2296C69.0919 13.5992 66.9611 12.4531 64.8683 11.2879C60.7018 8.93844 56.7636 6.18782 52.3117 4.69789C51.7409 4.52598 51.2272 4.33496 50.6755 4.25856C50.1238 4.16305 49.572 4.16305 49.0013 4.18215C47.8788 4.23946 46.7373 4.50688 45.6338 4.85071C43.4269 5.57657 41.3341 6.70356 39.3174 7.92606C37.3008 9.16766 35.4173 10.6003 33.6289 12.1475C31.8595 13.7138 30.1663 15.3948 28.6823 17.2667" fill="#CCC9C6"/>
<path d="M78.4162 13.2027C79.3675 12.4195 80.5851 11.9038 81.8598 11.8083C83.1345 11.7128 84.4472 12.0184 85.5887 12.6105C87.6244 13.642 89.1274 15.1128 90.307 17.1376C90.345 17.1949 90.4592 17.4241 90.5733 17.6342C90.6494 17.768 90.7065 17.9017 90.7446 17.9781C92.0193 20.3467 92.8373 22.6389 92.9325 25.1603C93.0656 27.6626 92.4949 30.1649 91.106 32.2087C92.2095 30.0694 92.59 27.6053 92.3617 25.1985C92.1144 22.7917 91.3343 20.4613 90.1167 18.3792C88.9181 16.3162 87.2629 14.4825 85.2082 13.3173C84.1809 12.7442 83.0393 12.4004 81.8598 12.3622C80.6992 12.324 79.5197 12.6296 78.4162 13.2027" fill="#BBB8B5"/>
<path d="M42.4575 103.094C43.599 108.405 45.3494 113.562 47.8226 118.338C49.0403 120.744 50.4101 123.075 51.9131 125.291L54.2341 128.633L55.3947 130.314C55.7752 130.868 56.1177 131.479 56.4791 132.052C57.9441 134.345 59.1997 136.771 60.3793 139.235C61.5018 141.718 62.4721 144.277 63.2141 146.913C63.937 149.55 64.4697 152.224 64.698 154.936C64.9644 157.649 65.0024 158.795 64.9073 161.507C64.8502 158.795 64.7171 157.668 64.3366 154.993C63.9751 152.319 63.4233 149.664 62.6433 147.085C61.8442 144.507 60.8169 142.004 59.6944 139.559C58.4958 137.153 57.2401 134.746 55.7752 132.492C55.4137 131.919 55.0713 131.346 54.6908 130.792L53.5302 129.13C52.7692 128.022 51.9701 126.914 51.2282 125.768C49.7252 123.495 48.3553 121.126 47.1568 118.681C44.7976 113.753 43.1805 108.462 42.4575 103.094" fill="#CCC9C6"/>
<path d="M40.9501 88.4554C41.3497 92.1229 42.32 95.6949 43.4044 99.2096C44.5079 102.724 45.8206 106.163 47.3616 109.486C50.4628 116.134 54.42 122.418 59.5378 127.652C60.8315 128.932 62.1633 130.25 63.3619 131.663C64.5795 133.077 65.6639 134.586 66.6723 136.152C68.689 139.285 70.211 142.723 71.2193 146.314C72.8935 152.331 73.1028 158.692 72.0755 164.804C71.8662 165.989 71.6188 167.154 71.3335 168.319C72.0564 164.69 72.4179 161.022 72.2847 157.355C72.1896 153.687 71.6379 150.039 70.5915 146.524C69.5261 143.029 68.0421 139.667 66.0444 136.61C65.0551 135.082 63.9517 133.611 62.7531 132.236C61.5545 130.842 60.2608 129.6 58.948 128.263C53.8112 122.915 49.7779 116.554 46.8099 109.773C45.3259 106.392 44.0513 102.896 43.0429 99.3433C42.5483 97.5668 42.1107 95.7713 41.7302 93.9566C41.3497 92.142 41.0453 90.3082 40.9501 88.4554" fill="#D2CFCB"/>
<path d="M84.7556 78.8951C86.6772 75.1703 88.2372 71.2927 89.6071 67.3768C90.9769 63.461 92.1184 59.4497 93.0506 55.4002C93.9638 51.3506 94.5917 47.2438 94.858 43.0987C94.9531 41.0358 94.9722 38.9346 94.7439 36.8907L94.5917 35.3435L94.2682 33.8154L94.116 33.0513C94.059 32.803 93.9448 32.5547 93.8687 32.3064L93.3741 30.8164C95.3337 34.5603 95.7903 38.9346 95.7903 43.1178C95.7903 45.2381 95.6381 47.3393 95.3717 49.4405C95.1244 51.5416 94.7629 53.6237 94.3063 55.6676C93.4121 59.7935 92.1755 63.8239 90.6344 67.7589C89.0363 71.6556 87.1338 75.4377 84.7556 78.8951" fill="#FFFBF7"/>
<path d="M57.3903 158.628C57.5615 150.127 55.9634 141.742 53.2998 133.757C50.6363 125.773 46.8883 118.171 42.5696 110.95C40.4198 107.321 38.1748 103.692 36.082 100.005C33.9892 96.3183 31.9155 92.6126 29.9559 88.8305C26.0367 81.3045 22.3458 73.6257 19.5871 65.5839C21.2994 69.4615 23.1258 73.2818 25.1044 77.0257C27.045 80.7887 29.0807 84.4944 31.1354 88.1811C35.2639 95.5734 39.6207 102.794 44.0155 110.071C48.3533 117.406 52.0822 125.162 54.5175 133.356C55.7541 137.444 56.6673 141.627 57.181 145.868C57.6947 150.127 57.7898 154.406 57.3903 158.628Z" fill="#E1DEDA"/>
<g opacity="0.43">
<path d="M25.1223 77.0502C27.0629 80.8132 29.0986 84.5189 31.1533 88.2055C32.0094 89.7336 32.8656 91.2426 33.7407 92.7517C36.2331 96.7439 39.0298 100.851 42.0928 104.843C56.1335 123.142 64.9612 141.785 58.6068 159.779C57.4462 163.045 58.036 164.593 59.5009 164.65H59.6912C63.7245 164.478 73.5796 154.278 73.7508 138.901V138.156C73.6367 127.593 68.9375 114.68 54.7636 100.946C32.7324 84.1369 19.605 65.6083 19.605 65.6083C21.2982 69.5051 23.1247 73.3063 25.1223 77.0502" fill="url(#paint1_linear_102_820)"/>
</g>
<path d="M42.9946 116.635C42.481 115.47 42.1005 114.649 41.4726 113.445C38.2764 120.857 31.4273 136.062 29.2394 150.369C29.1443 150.846 28.6306 154.151 28.5925 156.901C28.6496 157.398 28.7067 157.856 28.8018 158.277C30.7234 166.624 33.7293 168.038 34.966 168.248C34.186 167.274 33.5962 166.166 33.1966 164.962C31.0658 158.525 31.5224 145.689 42.9946 116.635" fill="#F2EFEA"/>
<path d="M82.6087 143.468C80.2115 137.47 75.3981 128.091 67.9973 114.453L67.9592 114.376L63.1458 106.411C53.9947 89.9073 44.1396 75.5238 38.7935 61.9808C37.6139 58.3324 36.6817 54.7222 36.1109 51.2839V51.2457C36.1109 51.2266 36.1109 51.2075 36.0919 51.1884C36.6056 54.5503 36.4724 58.0076 37.5569 63.3561C39.6496 73.3462 44.1586 84.3869 52.4727 94.6253C62.2326 106.659 73.3434 121.406 78.4612 144.041C79.108 146.945 80.0973 153.439 80.4969 159.456C80.9725 166.715 79.6217 171.777 77.0343 177.125C77.0913 177.221 78.6514 179.283 83.1414 172.98C83.5029 172.426 83.7882 171.872 84.0546 171.318C85.5766 166.715 87.9357 157.336 82.6087 143.468Z" fill="#FFFBF7"/>
<path d="M19.1864 33.9377C19.1864 37.6816 22.2114 40.7188 25.9404 40.7188C29.6693 40.7188 32.6943 37.6816 32.6943 33.9377C32.6943 30.1938 29.6693 27.1566 25.9404 27.1566C22.1924 27.1375 19.1864 30.1747 19.1864 33.9377ZM26.8346 30.7286C26.1496 30.4612 25.7311 29.8117 25.7121 29.105C25.7882 29.105 25.8452 29.0859 25.9213 29.0859C27.0248 29.0859 28.0331 29.4679 28.8512 30.0983C28.5278 30.5567 27.9951 30.8241 27.4434 30.8241C27.2341 30.8432 27.0438 30.805 26.8346 30.7286M21.4314 32.1803C21.8499 31.1107 22.63 30.232 23.6193 29.6971C23.7715 29.9455 23.8666 30.2511 23.8666 30.5758C23.8666 31.55 23.0866 32.3332 22.1163 32.3332C21.869 32.3141 21.6597 32.2759 21.4314 32.1803M24.894 35.6377L24.0188 33.995C23.9237 33.804 23.9617 33.5748 24.0949 33.4219L25.3886 32.0848C25.5408 31.932 25.7691 31.8938 25.9404 31.9893L27.6146 32.8107C27.8048 32.9062 27.919 33.0972 27.8809 33.3073L27.6146 35.1602C27.5765 35.3703 27.4243 35.5422 27.2151 35.5804L25.3886 35.9052H25.3125C25.1413 35.9052 24.9891 35.8096 24.894 35.6377M29.1937 34.2624C29.1937 33.441 29.7644 32.7534 30.5255 32.5624C30.6586 33.0017 30.7347 33.441 30.7347 33.9186C30.7347 34.6253 30.5825 35.2939 30.2972 35.886C29.6693 35.6568 29.1937 35.0265 29.1937 34.2624ZM21.2602 35.0647C21.3933 35.0265 21.5455 35.0074 21.6977 35.0074C22.649 35.0074 23.4481 35.7905 23.4481 36.7647C23.4481 37.1659 23.3149 37.5288 23.0866 37.8153C22.1734 37.1468 21.5265 36.1917 21.2602 35.0647M25.5028 38.7322C25.6169 37.8726 26.3399 37.2041 27.2151 37.2041C27.8048 37.2041 28.3185 37.4906 28.6229 37.949C27.8619 38.4648 26.9297 38.7704 25.9213 38.7704C25.7882 38.7704 25.636 38.7513 25.5028 38.7322" fill="url(#paint2_linear_102_820)"/>
<path d="M26.7394 21.6362L28.2995 24.3486L31.0011 22.7823L29.441 20.0699L26.7394 21.6362Z" fill="url(#paint3_linear_102_820)"/>
<path d="M22.8964 45.9523L25.1413 48.1299L27.3102 45.8759L25.0652 43.6983L22.8964 45.9523Z" fill="url(#paint4_linear_102_820)"/>
<path d="M68.2145 159.875C67.9672 160.199 67.834 160.715 67.7769 161.403C67.7199 162.09 67.7389 162.702 67.796 163.294C67.5486 163.007 67.035 162.931 66.7686 163.122C66.8447 163.389 66.9208 163.638 66.9589 163.943C66.9969 164.153 66.9969 164.364 66.9969 164.593C66.5213 164.937 65.9886 165.414 65.9125 166.293C65.8934 166.427 65.9125 166.56 65.9125 166.694C65.7412 166.14 65.4368 165.567 65.2846 165.089C65.1514 164.65 64.9041 164.249 64.6568 164.02C64.5807 163.943 64.5046 163.924 64.4095 163.886C64.3524 164.02 64.3143 164.173 64.2573 164.306C64.2382 164.364 64.2192 164.44 64.2002 164.574C64.048 164.402 63.9148 164.249 63.7436 164.134C63.6294 164.039 63.4772 164.001 63.325 163.981C63.0206 163.905 62.9636 163.981 62.9636 164.44C62.9636 164.593 62.9635 164.746 62.9445 164.937C62.2786 164.669 61.8981 165.223 61.9172 165.242C62.0503 165.376 62.1835 165.452 62.2216 165.662C62.2596 165.853 62.1835 166.159 62.0884 166.426C61.8981 166.942 62.0313 167.84 62.3928 168.184C62.6591 168.432 63.1538 168.394 63.5153 168.05C63.9148 167.668 64.048 166.503 63.8197 166.14C63.6865 165.93 63.5914 165.911 63.325 166.102C63.4011 166.255 63.5343 166.407 63.5153 166.579C63.4963 166.77 63.3631 167.038 63.2299 167.191C63.0396 167.401 62.8304 167.42 62.6782 167.248C62.4118 166.942 62.4118 166.426 62.6591 165.949C62.7352 165.815 62.9065 165.567 63.0016 165.491C63.3821 165.204 63.8387 165.128 64.1051 165.338C64.4095 165.567 64.5997 165.911 64.6378 166.446C64.7139 167.362 64.2382 168.795 64.2763 169.712C64.3143 170.552 64.9041 170.896 65.6081 171.03C65.9125 171.087 66.7115 171.183 66.8827 171.24C67.7199 171.546 68.4428 171.488 68.8804 170.724C69.337 169.941 69.5843 168.432 70.079 167.649C70.3644 167.21 70.6878 166.98 71.0683 166.904C71.4108 166.866 71.7722 167.133 71.9815 167.553C72.0386 167.649 72.0766 167.955 72.0766 168.107C72.0576 168.642 71.8293 169.101 71.4488 169.254C71.2205 169.33 71.0493 169.234 70.9732 168.948C70.9161 168.757 70.9351 168.451 71.0112 168.26C71.0683 168.107 71.2586 168.031 71.3917 167.936C71.2395 167.649 71.1444 167.592 70.9351 167.725C70.5736 167.955 70.1741 169.024 70.3644 169.54C70.5166 169.998 70.9351 170.266 71.2776 170.17C71.7722 170.037 72.2479 169.33 72.324 168.757C72.362 168.489 72.4381 168.184 72.5523 168.012C72.6664 167.84 72.8186 167.821 73.0089 167.783C73.0279 167.783 73.0279 167.745 73.066 167.706C72.9518 167.114 72.5523 167.21 72.2288 167.057C72.3049 166.866 72.381 166.732 72.4571 166.598C72.6664 166.197 72.6474 166.102 72.343 166.025C72.2098 165.987 72.0576 165.949 71.9054 165.968C71.7152 165.987 71.5249 166.083 71.2966 166.159C71.3347 166.025 71.3537 165.968 71.3727 165.911C71.3917 165.758 71.4298 165.605 71.4488 165.452H71.3347C71.2776 165.452 71.2205 165.452 71.1444 165.471C70.84 165.567 70.6307 165.758 70.2312 165.987C69.8697 166.197 69.3941 166.751 69.0136 167.305C69.0516 167.114 69.1087 166.923 69.1848 166.751C69.4321 166.121 69.3941 165.72 69.1468 165.414L68.8614 164.956C68.8994 164.879 68.9185 164.803 68.9565 164.726C69.0897 164.306 69.2799 163.962 69.4512 163.542C69.3751 163.275 68.8994 163.026 68.595 163.141C68.7662 162.568 68.8994 161.938 68.8994 161.212C68.8994 160.543 68.7472 160.123 68.557 159.817C68.5379 159.779 68.4999 159.76 68.4618 159.76C68.3477 159.76 68.2716 159.817 68.2145 159.875M55.9432 167.802C55.8291 167.42 55.7149 167.038 55.6008 166.618C55.1061 166.713 54.8017 167.095 54.5734 167.515C54.3641 167.916 54.25 168.375 54.0788 168.795C53.8695 168.623 53.6792 168.432 53.4699 168.26C52.8231 169.024 52.7089 169.827 53.2987 170.782C53.7743 171.546 54.3451 172.252 54.8968 172.94C55.5056 173.742 56.1335 174.506 56.1906 175.538C56.2286 176.512 55.7149 177.372 54.8968 178.059C54.25 178.613 53.508 178.823 52.6138 178.823C52.5758 178.823 52.4997 179.091 52.4997 179.148C52.5758 179.53 53.2607 179.358 53.6031 179.263C56.1715 178.613 57.8458 176.646 57.0657 174.659C56.7613 173.876 55.772 172.615 55.3725 171.851C55.049 171.221 54.7637 170.591 54.8968 169.846C55.0681 168.967 55.9242 168.127 56.9896 168.298C57.5984 168.394 58.0931 168.91 58.0741 169.521C58.0741 169.922 57.7316 170.438 57.3321 170.61C57.0847 170.724 56.8184 170.743 56.6281 170.572C56.4569 170.4 56.4569 170.17 56.5711 169.922C56.5901 169.884 56.5901 169.846 56.6091 169.788C56.2096 169.827 55.7149 170.361 55.772 170.782C55.8671 171.527 57.5414 172.119 58.3024 171.603C59.0063 171.145 59.3868 170.075 59.1204 169.215C58.8731 168.394 58.5116 167.955 57.7126 167.706C57.6365 167.668 57.5604 167.63 57.4843 167.611C57.6365 167.21 57.7697 166.866 57.9028 166.484H57.7506C56.9325 166.503 56.4379 167.057 55.9432 167.802M61.8601 170.839C61.3654 171.049 60.7566 171.66 60.6425 172.081C60.8898 172.023 61.1181 171.928 61.3274 171.89C61.784 171.832 62.1074 172.061 62.1835 172.482C62.2596 172.845 61.9933 173.494 61.6128 173.8C61.023 174.315 60.3761 174.755 59.7673 175.232C59.0443 175.767 58.7209 176.398 58.778 177.123C58.8351 178.078 59.6532 178.766 59.7863 178.919C58.5307 180.523 57.0467 181.841 55.5437 183.064C55.9623 183.179 56.3808 183.293 56.7994 183.389C58.1692 182.223 59.4819 180.982 60.7756 179.568C61.8601 180.046 63.1919 180.161 64.2573 179.339C64.9232 178.823 65.2466 178.174 65.5129 177.505C65.7222 177.009 65.8744 176.493 66.0456 175.977C66.293 175.271 66.7876 174.717 67.3203 174.506C67.796 174.315 68.1004 174.564 68.1384 175.194C68.1384 175.271 68.1384 175.347 68.1574 175.5C68.4999 175.08 68.614 174.64 68.7092 174.239C68.8614 173.475 68.6901 173.017 68.3667 172.711C67.9862 172.348 67.3584 172.329 66.6925 172.826C66.4452 173.017 66.1217 173.379 65.8744 173.742C65.57 174.22 65.3227 174.697 65.0754 175.175C64.3143 176.187 63.6865 176.856 63.268 177.257C63.7436 176.55 64.1051 175.805 64.4095 175.041C64.6758 174.392 64.9041 173.723 65.1324 173.055C65.1705 172.978 65.1705 172.883 65.2085 172.73C65.0944 172.845 65.0183 172.883 64.9802 172.94C64.086 174.029 63.0587 175.041 62.0503 176.015C61.9552 176.111 61.8791 176.226 61.784 176.321C61.822 175.805 62.2025 175.118 62.6021 174.526C62.7543 174.373 62.8874 174.22 63.0206 174.048C63.4392 173.551 63.8007 172.959 64.029 172.386C64.3143 171.641 64.067 171.145 63.6294 170.858C63.3821 170.686 63.0967 170.591 62.7733 170.591C62.4879 170.629 62.1835 170.705 61.8601 170.839M51.5484 172.711C51.1108 172.692 50.2357 172.654 50.2166 172.692C52.6899 173.953 53.4129 175.672 53.8124 177.773C54.3451 177.505 54.8588 175.92 54.7827 175.08C54.6685 173.914 54.0217 173.074 52.9563 172.272C52.9182 172.424 52.8992 172.52 52.8802 172.654C52.3094 172.386 51.9479 171.832 51.2059 171.718C51.3201 172.061 51.4342 172.386 51.5484 172.711M73.7699 175.748C73.7318 175.729 73.6748 175.71 73.5987 175.672C73.123 175.404 71.3347 175.003 70.4214 175.977C69.7936 176.684 69.0326 178.441 70.1931 179.186C70.4785 179.358 70.6878 179.549 71.1254 179.32C71.5059 179.129 71.7532 178.785 71.9244 178.384C71.9625 178.308 71.9625 178.231 71.9815 178.117C71.9054 178.174 71.8674 178.193 71.8293 178.231C71.4488 178.632 71.2395 178.747 71.0683 178.613C70.8781 178.499 70.7449 177.83 70.9542 177.467C71.5059 176.474 72.5333 176.149 73.0469 176.455C73.4465 176.703 73.5416 177.257 73.2182 178.059C72.8377 178.995 72.1908 179.759 71.4298 180.084C70.7259 180.371 70.0409 180.485 69.356 180.581C68.9185 180.638 68.4999 180.523 68.0623 180.428C67.4916 180.294 66.9208 180.18 66.2739 180.352C64.5617 180.848 62.583 182.415 61.4415 184C61.6698 184.019 61.8981 184.019 62.1264 184.019C62.4499 183.637 62.8494 183.255 63.306 182.911C64.6187 181.899 65.9125 181.364 67.1491 181.421C68.1194 181.479 68.9755 181.65 69.8697 181.689C70.4214 181.708 70.9542 181.746 71.5249 181.65C72.324 181.498 73.104 180.886 73.7889 179.778C73.5796 179.74 73.3704 179.683 73.1421 179.645C74.0743 178.804 74.8353 177.811 75.0826 176.493C74.7021 176.76 74.3407 176.99 73.9601 177.219C74.2075 176.684 74.4548 176.187 74.607 175.71C74.7592 175.194 74.7402 174.774 74.569 174.487C74.3026 174.888 74.0553 175.29 73.7699 175.748M55.049 179.416C54.5163 179.855 54.5163 180.6 54.9729 181.173C55.1251 181.364 55.2964 181.536 55.4105 181.67C55.8671 181.288 56.2857 180.886 56.7233 180.543C57.7316 179.778 58.017 178.881 57.8648 177.945C57.8267 177.716 57.7697 177.505 57.7126 177.2C56.7994 178.021 55.8862 178.709 55.049 179.416M50.6352 179.702C50.1595 179.683 49.7029 179.664 49.2463 179.607C49.2463 179.645 49.76 180.141 50.0644 180.371C49.8361 180.562 49.6459 180.734 49.4366 180.886C51.6435 180.791 53.2797 181.822 54.9159 182.854C54.7066 181.536 52.8421 179.74 50.5591 179.416C50.5781 179.511 50.5971 179.587 50.6352 179.702ZM59.4058 182.529C59.0634 182.93 58.5687 183.312 58.1502 183.675C58.9302 183.809 59.7102 183.904 60.4712 183.943C60.5664 183.904 60.6425 183.847 60.7376 183.79C61.1562 183.484 61.5176 183.064 61.8601 182.682C62.1264 182.395 62.3167 182.071 62.564 181.765C62.7923 181.479 63.0587 181.192 63.306 180.886C61.7459 180.925 60.4142 181.364 59.4058 182.529M67.6438 182.472C66.2739 182.586 64.79 183.217 63.3441 184C65.6081 183.924 67.796 183.542 69.6985 183.045C69.2609 182.663 68.7092 182.472 68.0052 182.472C67.8911 182.453 67.7579 182.472 67.6438 182.472Z" fill="url(#paint5_linear_102_820)"/>
<path d="M54.231 112.274C54.1549 112.293 54.0978 112.331 54.0978 112.388V112.407C54.1168 112.808 54.231 113.267 54.6305 113.859C55.0681 114.528 55.5437 115.005 56.0384 115.425C55.6959 115.521 55.4105 116.017 55.5057 116.304C55.8862 116.591 56.2667 116.762 56.6281 117.068C57.3891 117.698 57.7887 117.355 57.8458 117.087C57.8648 116.992 57.7506 116.801 57.5604 116.591C57.7126 116.743 57.9028 116.839 58.0931 116.839C58.4355 116.762 58.6638 116.61 58.3975 116.075C58.2643 115.807 58.017 115.502 57.8838 115.215C57.7506 114.929 57.6745 114.642 57.5794 114.356C57.2179 114.317 56.8184 114.699 56.7613 115.101C56.4569 114.547 56.1145 113.974 55.6579 113.381C55.2012 112.808 54.7827 112.407 54.3832 112.254C54.3451 112.235 54.3261 112.235 54.288 112.235L54.231 112.274V112.274ZM60.6805 114.757C60.7756 115.406 61.4415 116.495 62.1264 117.316C61.8411 116.629 61.9552 116.228 62.2216 115.884C62.3167 115.75 62.2977 115.273 61.9362 114.833C61.803 114.661 61.4606 114.317 61.2513 114.26C61.1752 114.241 61.1181 114.222 61.061 114.222C60.7376 114.241 60.6425 114.508 60.6805 114.757M65.2276 115.368C65.0753 115.502 64.79 115.731 64.6378 116.591C64.5046 116.419 64.1431 116.094 63.9719 115.941C63.9148 116.056 63.8197 116.132 63.7816 116.266C63.6675 116.667 63.7246 117.144 64.0099 117.66C64.4856 118.558 64.9993 119.437 65.532 120.315C66.5022 121.939 67.4155 123.505 66.9018 124.919H67.073C67.1111 124.9 67.1301 124.862 67.1491 124.842C67.8721 124.327 68.4048 123.486 67.8721 122.455C67.3394 121.385 65.8744 120.067 65.3798 118.978C65.0944 118.348 65.0753 117.832 65.2846 117.393C65.4749 116.992 66.0266 116.782 66.6354 116.858C66.7876 116.877 67.1301 117.049 67.3013 117.164C67.8911 117.565 68.2145 118.157 68.1004 118.654C68.0433 118.94 67.796 119.074 67.4535 118.94C67.2062 118.845 66.8828 118.634 66.7305 118.424C66.5974 118.252 66.6735 117.985 66.6544 117.775C66.2359 117.737 66.1217 117.794 66.1027 118.138C66.0837 118.692 66.7496 119.513 67.4535 119.666C68.0623 119.838 68.6521 119.57 68.8043 119.112C69.0136 118.482 68.7853 117.832 68.2335 117.355C67.9672 117.125 67.6818 116.82 67.5867 116.591C67.4916 116.342 67.5867 116.17 67.6628 115.922C67.6818 115.903 67.6438 115.865 67.6247 115.807C66.9018 115.502 66.7115 116.017 66.312 116.247C66.1788 116.017 66.0837 115.865 65.9695 115.674C65.7983 115.368 65.7032 115.234 65.57 115.234C65.4368 115.215 65.3607 115.273 65.2276 115.368M59.577 116.285C59.4629 116.4 59.3868 116.629 59.501 116.858C59.7483 117.316 60.2429 117.775 60.7756 118.042C61.822 118.539 62.7543 119.303 63.4582 120.277L63.8007 120.793C63.1918 120.201 62.5069 119.647 61.8601 119.093C61.1752 118.501 60.5093 118.233 59.9576 118.252C59.7863 118.271 59.6722 118.405 59.6912 118.577C59.7102 119.15 60.1098 119.742 60.6805 120.449C61.1752 121.041 61.6698 121.729 62.2025 122.378L61.8601 122.092C61.042 121.423 60.319 120.621 59.7483 119.685C59.4629 119.227 58.1882 117.66 57.6555 118.443C57.4653 118.73 57.7696 119.284 58.3404 119.742C58.8541 120.143 59.3868 120.468 59.9195 120.85C59.9385 121.481 60.1668 121.901 60.9278 122.455C61.3654 122.76 61.803 123.009 62.2406 123.314C62.3738 123.41 62.564 123.582 62.6021 123.696C62.8304 124.327 63.2299 124.651 63.6865 124.842C64.2002 125.072 64.6568 125.072 64.9802 125.072C65.2846 125.053 65.589 124.9 65.7983 124.613C66.1027 124.212 66.293 123.123 65.8364 122.264C65.6842 121.977 65.3988 121.652 65.1324 121.442C64.9231 121.251 64.79 121.137 64.6758 120.869C64.4285 120.334 64.1241 119.8 63.7436 119.265C63.2299 118.539 62.7733 118.31 62.2596 118.367C61.822 117.813 61.4225 117.316 60.9659 116.839C60.5473 116.419 60.0527 116.17 59.7483 116.17C59.6912 116.228 59.6151 116.247 59.577 116.285M56.0193 120.907C56.0193 121.652 57.1228 121.748 57.3891 121.652C57.7316 121.519 57.9409 121.27 58.2643 121.156C58.4926 121.079 58.8351 121.175 59.2346 121.194C58.5116 120.736 57.4462 120.22 56.7233 120.22C56.3237 120.201 56.0193 120.392 56.0193 120.907ZM57.5984 122.245C57.4653 122.283 57.3891 122.359 57.275 122.417C57.4272 122.608 57.6745 122.97 57.8838 123.123C57.5794 123.181 57.3321 123.219 57.0847 123.314C56.8945 123.391 56.7613 123.524 56.6281 123.658C56.3237 123.945 56.3808 124.059 56.8564 124.384C57.0277 124.499 57.1799 124.613 57.4082 124.766C56.6472 125.301 56.9706 126.103 57.0086 126.103C57.256 126.046 57.4272 125.969 57.6745 126.065C57.9028 126.18 58.1882 126.485 58.3975 126.772C58.8351 127.364 59.4629 127.612 60.1098 127.459C60.5664 127.345 60.8708 126.772 60.7376 126.141C60.6044 125.435 59.8624 124.709 59.3107 124.69C58.9682 124.69 58.9112 124.785 58.9112 125.205C59.1395 125.244 59.3868 125.186 59.558 125.339C59.7483 125.492 59.9576 125.836 60.0146 126.103C60.1098 126.447 59.9766 126.695 59.6722 126.733C59.1585 126.81 58.6068 126.447 58.2453 125.836C58.1502 125.664 57.998 125.301 57.998 125.148C57.9599 124.537 58.2072 124.002 58.6068 123.83C59.0634 123.658 59.5771 123.696 60.1859 124.04C61.2322 124.632 62.4689 126.16 63.4963 126.772C64.4856 127.364 65.3607 126.886 65.9125 126.199C65.9315 126.18 65.9695 126.16 65.9886 126.122C65.9886 126.103 65.9886 126.065 66.0076 125.95C64.5617 126.39 63.0777 125.358 61.5176 124.288C60.6805 123.715 59.8244 123.123 58.9682 122.588C58.5877 122.359 58.2453 122.245 57.9028 122.245C57.8077 122.206 57.6936 122.226 57.5984 122.245M69.7365 122.99C68.9565 123.391 68.6141 124.479 69.337 125.874C69.5082 126.218 69.7175 126.562 69.9648 126.867C70.9161 128.071 71.9815 129.045 73.0279 130.038C73.6557 130.649 74.2645 131.318 74.8734 131.986C76.4334 133.725 76.1481 135.788 76.1861 135.883C76.89 134.756 77.4798 133.572 76.9091 131.757C76.5476 130.63 75.7866 129.847 74.9875 129.159C74.3977 128.625 73.7699 128.185 73.1421 127.689C72.2859 127.02 71.7532 126.065 71.7152 125.244C71.6771 124.499 72.1527 124.212 73.0469 124.46C73.1611 124.499 73.2372 124.518 73.4274 124.575C73.104 123.964 72.5142 123.544 72.0005 123.238C71.4488 122.894 70.9732 122.76 70.5546 122.76C70.2692 122.799 69.9839 122.875 69.7365 122.99M68.4618 127.765C69.5463 129.522 70.4405 131.413 71.2966 133.266C71.7342 134.183 72.362 135.043 72.9328 135.845C73.1421 136.131 73.5796 136.227 73.9221 136.284C74.1504 136.322 74.3216 136.399 74.4738 136.685C76.4144 140.238 77.9174 143.963 79.135 147.535C79.1731 147.65 79.1921 147.841 79.154 147.936C78.6213 149.006 78.9448 149.77 79.4965 150.477C79.9341 151.031 80.7522 152.158 81.0566 152.139C81.1136 151.47 81.1897 150.801 81.1897 150.152C81.1897 149.56 81.1707 148.929 80.9995 148.376C80.9044 148.032 80.5239 147.841 80.2765 147.573C80.1053 147.382 79.8389 147.229 79.7628 147C78.4691 143.505 76.9281 139.856 74.9875 136.38C74.7972 136.017 74.7402 135.769 74.8734 135.425C75.0826 134.813 74.8924 134.145 74.5309 133.515C73.6177 131.91 72.381 130.649 71.0873 129.522C70.3073 128.835 69.5082 128.223 68.6901 127.593C68.595 127.517 68.4809 127.459 68.2906 127.345C68.3667 127.555 68.4048 127.669 68.4618 127.765ZM64.9612 128.625C64.2953 129.121 63.9719 129.866 64.048 130.993C64.1051 131.776 64.6568 132.903 65.1705 133.247C65.2085 132.884 65.1895 132.521 65.2466 132.216C65.3798 131.566 65.8364 131.222 66.4642 131.318C66.9969 131.413 67.7579 132.082 68.0052 132.731C68.4238 133.801 68.7663 134.871 69.1087 135.96C69.5082 137.201 70.2312 137.965 71.2395 138.233C72.0766 138.443 72.8757 138.29 73.6938 137.908C73.3513 137.698 73.085 137.526 72.7996 137.373C71.9244 136.857 71.3347 135.96 70.8781 134.89C70.3263 133.572 69.7936 132.197 69.0326 130.974C68.557 130.172 67.9101 129.389 67.2062 128.796C66.7496 128.414 66.312 128.242 65.9125 128.242C65.589 128.262 65.2466 128.414 64.9612 128.625M58.1502 137.163C57.5984 137.067 57.0467 136.991 56.4379 136.896C56.2667 137.583 56.5711 138.194 56.9706 138.729C57.3701 139.245 57.8838 139.646 58.3214 140.105C57.9789 140.257 57.6175 140.41 57.275 140.563C57.8648 141.843 58.8351 142.473 60.3761 142.282C61.6318 142.129 62.8684 141.824 64.086 141.556C65.4749 141.251 66.8067 140.907 68.1574 141.48C69.4321 142.015 70.1931 143.18 70.5927 144.632C70.8971 145.797 70.7259 146.847 70.1931 148.013C70.1741 148.051 70.4405 148.299 70.5356 148.356C70.6878 147.879 71.1825 147.153 71.2776 146.676C71.9815 143.008 69.5463 140.467 66.5403 140.257C65.3607 140.162 64.1621 140.296 62.9636 140.334C61.9742 140.372 60.9849 140.353 60.1288 139.742C59.1204 138.997 58.5307 137.411 59.4058 136.151C59.9005 135.425 60.8327 135.119 61.6128 135.501C62.1264 135.749 62.583 136.494 62.564 137.087C62.545 137.488 62.4499 137.831 62.0884 137.965C61.7459 138.08 61.4796 137.965 61.2322 137.66C61.1942 137.621 61.1371 137.583 61.0991 137.545C60.8898 138.061 61.2893 139.016 61.8791 139.188C62.8874 139.512 63.8768 138.214 63.7055 136.953C63.5533 135.788 63.0016 134.813 61.9933 134.355C60.8708 133.858 59.9385 134.03 59.1395 134.871C59.0443 134.966 58.9492 135.024 58.8731 135.1C58.4546 134.661 58.0931 134.298 57.6936 133.897C57.0467 135.043 57.4652 136.036 58.1502 137.163M63.8197 139.073C64.9612 139.035 66.1408 137.564 65.6081 136.265C65.2276 135.291 64.048 134.489 63.1538 133.935C64.5426 135.558 65.1134 137.297 63.8197 139.073M78.336 141.098C78.7355 141.766 79.0018 142.55 79.3062 143.295C80.3907 142.626 81.1707 141.308 80.7141 139.875C80.4858 139.149 80.0863 138.462 79.7248 137.793C79.4394 137.297 79.097 136.857 78.7926 136.38C78.4881 135.921 78.2408 135.425 77.9364 134.928C77.2325 137.144 77.2135 139.169 78.336 141.098ZM74.1314 143.848C74.4928 144.804 75.5012 145.128 76.5095 144.804C76.852 144.689 77.1754 144.536 77.4037 144.441C77.0993 143.619 76.7378 142.874 76.4715 142.091C75.8817 140.353 74.7782 139.512 73.4274 139.283C73.104 139.226 72.7616 139.207 72.343 139.149C73.0469 140.773 73.5796 142.359 74.1314 143.848ZM62.1264 143.696C62.3357 143.81 62.4499 143.887 62.6021 143.982C61.9742 144.651 61.023 144.88 60.5093 145.816C61.08 145.835 61.5557 145.835 62.0503 145.835C61.803 146.427 61.3464 147.631 61.3844 147.65C64.2763 144.842 66.9969 144.67 70.098 145.128C70.0029 144.269 68.0433 142.798 66.8637 142.511C66.4832 142.416 66.1027 142.378 65.7412 142.378C64.5236 142.397 63.3821 142.874 62.1264 143.696ZM80.4478 144.593C81.2278 144.288 81.9888 144.001 82.7498 143.848C82.6927 143.715 82.6547 143.581 82.5976 143.447C82.4644 143.123 82.3313 142.779 82.1791 142.435C81.4371 143.065 80.7902 143.848 80.4478 144.593M80.6 146.523C80.5619 146.542 80.5239 146.599 80.4478 146.714C81.6083 146.924 82.0459 147.955 82.2552 149.14C82.921 148.968 83.2254 148.395 83.5298 147.86C83.7772 148.089 84.0245 148.376 84.2909 148.567C84.0626 147.707 83.7962 146.828 83.4918 145.931C83.3396 145.911 83.1874 145.892 83.0352 145.892C82.2171 145.931 81.418 146.179 80.6 146.523M70.4975 150.63C70.6307 150.63 70.7829 150.63 70.9351 150.649C70.6878 151.298 70.4214 151.909 70.1361 152.521C70.1741 152.559 71.1254 152.081 71.582 151.776C71.7342 152.177 71.8674 152.54 72.0005 152.903C72.9328 149.827 75.1017 148.07 77.2896 146.313C77.1374 146.274 76.9471 146.274 76.7759 146.274C74.8163 146.236 71.8864 147.917 70.4975 150.63M77.613 148.547C76.852 149.197 76.148 149.923 75.7675 150.916C75.387 151.871 75.5202 152.635 76.11 153.266C76.871 152.578 77.4418 151.871 77.2135 150.992C77.7462 150.954 78.2598 150.935 78.8877 150.878C78.412 149.827 78.1267 148.91 78.7735 147.783C78.7355 147.745 78.6974 147.726 78.6594 147.707C78.336 147.994 77.9555 148.242 77.613 148.547M82.0839 149.904C82.4835 150.572 82.7498 151.164 83.1493 151.642C83.4157 152.005 83.8723 152.234 84.424 152.005C84.6143 151.928 84.8806 151.718 85.0138 151.527C84.9567 151.26 84.8997 151.012 84.8426 150.744C84.4431 150.782 84.1577 150.553 83.9103 150.381C83.4918 150.076 83.0542 149.885 82.4454 149.885C82.3122 149.885 82.1981 149.885 82.0839 149.904M78.0696 153.055C77.9174 153.571 77.6891 153.991 77.0042 154.144C77.2705 154.545 77.7081 154.622 78.1838 154.564C78.6404 154.507 78.9638 154.182 79.154 153.819C79.4584 153.285 79.4965 152.635 79.4204 152.062C79.3823 151.757 79.3253 151.394 79.2301 151.183C78.6023 151.795 78.2789 152.406 78.0696 153.055ZM82.8259 153.953C83.3586 154.259 84.1577 153.896 84.5762 153.017C83.8533 153.208 83.606 152.769 83.2254 152.387C82.902 152.062 82.4835 151.852 82.0649 151.546C81.8746 152.444 82.2361 153.628 82.8259 153.953ZM79.8199 153.8C79.8389 154.297 79.8389 154.736 79.3443 155.176C79.8199 155.309 80.2385 155.195 80.638 154.87C80.9995 154.584 81.1136 154.24 81.0946 153.839C81.0566 153.151 80.5429 152.31 79.896 152.005C79.896 152.654 79.7819 153.266 79.8199 153.8M82.0268 155.844C82.0839 155.94 82.16 155.997 82.2742 155.997H82.3503C82.4264 155.997 82.5405 155.959 82.6547 155.902C82.9781 155.73 83.0923 155.539 83.0542 155.29C82.921 154.564 82.3883 154.106 81.8176 153.686C81.6844 154.507 81.6463 155.252 82.0268 155.844Z" fill="url(#paint6_linear_102_820)"/>
<path d="M33.2879 106.391L34.2772 105.818L31.5947 101.119L30.6054 101.692L31.6327 103.507L26.7623 106.315L27.3711 107.384L32.2415 104.576L33.2879 106.391V106.391ZM37.6828 111.778L32.8694 112.542L35.9515 108.721L35.0002 107.06L29.1404 110.441L29.7492 111.51L34.2202 108.932L34.2392 108.97L30.7005 113.21L31.1951 114.089L36.6173 113.172L36.6364 113.191L32.1654 115.77L32.7742 116.84L38.634 113.459L37.6828 111.778V111.778Z" fill="#BCBAB7"/>
</g>
<defs>
<linearGradient id="paint0_linear_102_820" x1="32.8085" y1="18.3355" x2="49.3073" y2="7.69031" gradientUnits="userSpaceOnUse">
<stop stop-color="#FAF6F2"/>
<stop offset="1" stop-color="#FFFBF7"/>
</linearGradient>
<linearGradient id="paint1_linear_102_820" x1="63.1744" y1="168.114" x2="46.7242" y2="100.734" gradientUnits="userSpaceOnUse">
<stop stop-color="#FAF6F2"/>
<stop offset="0.512" stop-color="#FFFBF7"/>
<stop offset="0.677" stop-color="#FFFBF7"/>
<stop offset="0.901" stop-color="#EBE7E3"/>
<stop offset="1" stop-color="#CCC9C6"/>
</linearGradient>
<linearGradient id="paint2_linear_102_820" x1="32.8348" y1="21.9782" x2="21.7565" y2="41.0222" gradientUnits="userSpaceOnUse">
<stop stop-color="#791426"/>
<stop offset="0.535" stop-color="#AF1C3B"/>
<stop offset="1" stop-color="#791426"/>
</linearGradient>
<linearGradient id="paint3_linear_102_820" x1="29.9624" y1="20.3077" x2="18.88" y2="39.3586" gradientUnits="userSpaceOnUse">
<stop stop-color="#791426"/>
<stop offset="0.535" stop-color="#AF1C3B"/>
<stop offset="1" stop-color="#791426"/>
</linearGradient>
<linearGradient id="paint4_linear_102_820" x1="37.3888" y1="24.6158" x2="26.3075" y2="43.6649" gradientUnits="userSpaceOnUse">
<stop stop-color="#791426"/>
<stop offset="0.535" stop-color="#AF1C3B"/>
<stop offset="1" stop-color="#791426"/>
</linearGradient>
<linearGradient id="paint5_linear_102_820" x1="37.8197" y1="233.856" x2="79.6565" y2="134.892" gradientUnits="userSpaceOnUse">
<stop stop-color="#791426"/>
<stop offset="0.535" stop-color="#AF1C3B"/>
<stop offset="1" stop-color="#791426"/>
</linearGradient>
<linearGradient id="paint6_linear_102_820" x1="36.6618" y1="67.882" x2="85.4396" y2="176.618" gradientUnits="userSpaceOnUse">
<stop stop-color="#791426"/>
<stop offset="0.535" stop-color="#AF1C3B"/>
<stop offset="1" stop-color="#791426"/>
</linearGradient>
<clipPath id="clip0_102_820">
<rect width="108" height="194" fill="white"/>
</clipPath>
</defs>
</svg>
